<?xml version="1.0" standalone="no"?>
<!DOCTYPE svg PUBLIC "-//W3C//DTD SVG 20010904//EN"
 "http://www.w3.org/TR/2001/REC-SVG-20010904/DTD/svg10.dtd">
<svg version="1.0" xmlns="http://www.w3.org/2000/svg"
 width="512.000000pt" height="512.000000pt" viewBox="0 0 512.000000 512.000000"
 preserveAspectRatio="xMidYMid meet">
<metadata>
Created by potrace 1.16, written by Peter Selinger 2001-2019
</metadata>
<g transform="translate(0.000000,512.000000) scale(0.100000,-0.100000)"
fill="#000000" stroke="none">
<path d="M2455 5101 c-22 -10 -128 -86 -235 -169 l-195 -152 -491 0 -492 0
-53 -28 c-60 -31 -113 -93 -129 -150 -6 -22 -10 -179 -10 -387 l-1 -350 -401
-310 c-220 -170 -411 -321 -424 -334 l-24 -24 0 -1495 c0 -1144 3 -1504 12
-1536 16 -55 99 -138 154 -154 60 -18 4728 -18 4788 0 55 16 138 99 154 154 9
32 12 392 12 1536 l0 1495 -24 24 c-13 13 -204 164 -424 334 l-401 310 -1 351
c0 385 -3 406 -60 476 -17 20 -53 48 -82 62 l-52 26 -490 0 -491 0 -195 152
c-107 83 -213 159 -235 169 -26 12 -63 19 -105 19 -42 0 -79 -7 -105 -19z
m227 -232 c51 -40 97 -76 103 -80 5 -5 -95 -9 -225 -9 l-235 0 34 28 c128 101
175 132 201 132 19 0 57 -22 122 -71z m1383 -294 l25 -24 0 -791 c0 -814 0
-817 39 -847 29 -23 89 -16 116 13 l25 27 2 339 3 340 285 -222 c157 -121 285
-225 285 -230 0 -5 -319 -257 -710 -560 -390 -304 -713 -557 -717 -563 -4 -7
-8 -31 -8 -54 0 -52 34 -83 89 -83 32 0 109 57 736 544 l700 544 3 -668 c1
-368 1 -972 0 -1343 l-3 -674 -1124 873 c-620 481 -1141 879 -1160 886 -46 15
-136 15 -182 0 -19 -7 -541 -405 -1160 -885 l-1124 -874 -3 668 c-1 367 -1
971 0 1342 l3 675 675 -525 c371 -289 689 -533 705 -544 44 -28 81 -24 116 10
40 40 39 81 -3 125 -18 19 -341 274 -718 566 -377 292 -685 535 -685 540 0 5
128 109 285 231 l285 221 5 -347 5 -347 24 -19 c26 -22 87 -25 112 -6 39 30
39 33 39 847 l0 791 25 24 24 25 1481 0 1481 0 24 -25z m-1455 -2680 c8 -6
507 -394 1109 -861 l1094 -849 -1126 -3 c-620 -1 -1634 -1 -2254 0 l-1127 3
1093 850 c602 468 1108 858 1125 867 31 18 58 16 86 -7z"/>
<path d="M2369 4425 c-204 -39 -391 -139 -542 -291 -166 -167 -265 -380 -289
-624 -45 -446 206 -867 622 -1043 111 -46 187 -65 307 -76 82 -7 104 -6 133 8
43 20 59 65 40 111 -18 43 -37 50 -153 61 -359 34 -656 286 -748 634 -31 115
-31 300 -1 412 42 157 112 279 224 392 104 105 207 167 358 217 78 26 97 28
240 28 143 0 162 -2 240 -28 299 -99 497 -306 583 -611 16 -58 20 -111 24
-320 5 -249 5 -250 -19 -295 -34 -63 -86 -92 -156 -87 -56 4 -91 23 -126 71
-19 25 -21 45 -26 246 -5 214 -5 219 -29 244 -18 19 -35 26 -63 26 -57 0 -84
-32 -93 -106 -34 -285 -356 -414 -558 -225 -217 202 -99 538 203 579 50 7 68
15 87 36 52 61 6 146 -79 146 -183 -1 -375 -124 -452 -292 -72 -156 -71 -301
4 -454 48 -98 140 -191 234 -235 165 -78 371 -62 520 41 32 21 47 27 50 18 36
-137 107 -219 223 -260 82 -29 197 -22 271 16 98 50 158 128 181 234 14 67 14
430 1 542 -52 420 -349 757 -765 870 -105 29 -334 36 -446 15z"/>
</g>
</svg>
